<?xml version="1.0" encoding="UTF-8" standalone="no"?> <svg xmlns="http://www.w3.org/2000/svg" viewBox="0 0 64 64"><defs><style>.cls-1{fill:#333;}.cls-2{fill:#ffd422;}.cls-3{fill:#e3ddd5;}.cls-4{fill:#fff;}</style></defs><g id="Filled_Outline_Icons" data-name="Filled Outline Icons"><path class="cls-1" d="M32,52a1.61,1.61,0,0,1,1.57,2L32,61l-1.57-7A1.61,1.61,0,0,1,32,52Z"/><path class="cls-1" d="M32.5,30a8.5,8.5,0,0,0,6.55-3.08,9.92,9.92,0,0,1,1.89,2.59,8.51,8.51,0,0,0-6.56-7.3,4,4,0,0,1-4.47.19,8.51,8.51,0,0,0-5.26,4.83,9,9,0,0,1,.89-.86A8.47,8.47,0,0,0,32.5,30Z"/><path class="cls-2" d="M41.76,40.81c-2.45,10.36-17.08,10.36-19.52,0a10,10,0,0,0,8.32,12.08h0a9.14,9.14,0,0,0,2.86,0h0A10,10,0,0,0,41.76,40.81Z"/><path class="cls-1" d="M32,48.63a10,10,0,0,0,9.76-7.82,9.92,9.92,0,0,0-.83-2.31,10,10,0,0,1-17.86,0,9.79,9.79,0,0,0-.83,2.31A10,10,0,0,0,32,48.63Z"/><path class="cls-2" d="M32,44a10,10,0,0,0,8.93-5.5,10.24,10.24,0,0,0-1.88-2.58c-3.28,4.27-10.6,4-13.51-.55a9.91,9.91,0,0,0-2.47,3.13A10,10,0,0,0,32,44Z"/><path class="cls-2" d="M25.54,31c2.91,4.53,10.23,4.82,13.51.55a10.17,10.17,0,0,1,1.45,1.82A8.77,8.77,0,0,0,41,29.86c0-.12,0-.23,0-.35a9.92,9.92,0,0,0-1.89-2.59c-3.28,4.27-10.6,4-13.51-.55a9,9,0,0,0-.89.86,8.57,8.57,0,0,0-.44,5.13A10.68,10.68,0,0,1,25.54,31Z"/><path class="cls-1" d="M32.5,39a8.49,8.49,0,0,0,8-5.63,10.17,10.17,0,0,0-1.45-1.82c-3.28,4.27-10.6,4-13.51-.55a10.68,10.68,0,0,0-1.33,1.36,7.92,7.92,0,0,0,.93,2.38,5.16,5.16,0,0,0,.4.63A8.47,8.47,0,0,0,32.5,39Z"/><path class="cls-2" d="M35.87,20a4,4,0,0,1-7.74,0,3,3,0,0,0,2.35-4.68,3.91,3.91,0,0,1,3,0A3,3,0,0,0,35.87,20Z"/><path class="cls-1" d="M39,17a3,3,0,0,1-3.13,3A3,3,0,1,1,39,17Z"/><path class="cls-1" d="M31,17a3,3,0,0,1-6,0A3,3,0,0,1,31,17Z"/><path class="cls-1" d="M44,6a2,2,0,0,1-2,2,10,10,0,0,0-4,1c-2,1-4,6-4,6,0-2.93,1-10.75,7.8-11A2,2,0,0,1,44,6Z"/><path class="cls-1" d="M20,6a2,2,0,0,0,2,2,10,10,0,0,1,4,1c2,1,4,6,4,6,0-2.93-1-10.75-7.8-11A2,2,0,0,0,20,6Z"/><path class="cls-3" d="M57.57,23.26c-1.93.57-14.62,4.4-16.85,5.07a8.52,8.52,0,0,0-3.48-4.89L50.48,11C58.77,6.58,65.51,18.28,57.57,23.26Z"/><path class="cls-3" d="M59.51,37.64a6,6,0,0,1-7.35,4.24c-1.52-.83-10.8-5.81-12.54-6.74A8.52,8.52,0,0,0,41,29.86l14.29.43A6,6,0,0,1,59.51,37.64Z"/><path class="cls-3" d="M27.2,23.85a8.57,8.57,0,0,0-3,4.76L6.43,23.26c-7.94-5-1.2-16.68,7.09-12.27Z"/><path class="cls-3" d="M25.14,34.74l-13.3,7.14c-7.73,1.82-10.7-9.3-3.11-11.59L24,29.83A8.36,8.36,0,0,0,25.14,34.74Z"/><path class="cls-3" d="M30.48,15.31A3,3,0,0,1,28.13,20,4,4,0,0,1,30.48,15.31Z"/><path class="cls-3" d="M36,19a3.64,3.64,0,0,1-.13,1,3,3,0,0,1-2.35-4.68A4,4,0,0,1,36,19Z"/><path class="cls-4" d="M32,50a1,1,0,0,1,0-2,5,5,0,0,0,4.17-2.24,1,1,0,1,1,1.66,1.11A7,7,0,0,1,32,50Z"/><path class="cls-4" d="M37.92,45a1,1,0,0,1-1-1.17C37,43,36.92,42,38,42s1.07,1.34.9,2.17A1,1,0,0,1,37.92,45Z"/><path class="cls-4" d="M30,26.6a1,1,0,0,1-.46-1.89c1-.46,3.78-1.53,4,.29a1,1,0,0,1-1,1A8.17,8.17,0,0,0,30,26.6Z"/><path class="cls-4" d="M27,31.5a1,1,0,0,1-1-1c0-1.24.76-4.95,2.58-4a1,1,0,0,1,.24,1.39A4.45,4.45,0,0,0,28,30.5,1,1,0,0,1,27,31.5Z"/><path d="M55.53,29.32a.91.91,0,0,0-.23,0l-13-.39,15.56-4.68a8.07,8.07,0,1,0-8.07-14L37.11,22.19c-.31-.16-.62-.32-.94-.45a4.73,4.73,0,0,0,.43-.8A4,4,0,0,0,36.05,13a8.31,8.31,0,0,1,2.4-3.11A9.08,9.08,0,0,1,42,9a3,3,0,1,0-.26-6c-6.28.27-8.43,6.19-8.7,11.11a4.86,4.86,0,0,0-2.08,0C30.68,9,28.43,3.13,22,3a3,3,0,0,0,0,6,9.08,9.08,0,0,1,3.55.89A8.17,8.17,0,0,1,28,13a4,4,0,0,0-.55,7.94,5.12,5.12,0,0,0,.68,1.15c-.27.14-.54.3-.8.47L14.21,10.26a8.07,8.07,0,1,0-8.07,14L21.7,28.9l-13,.39a6.79,6.79,0,0,0-4.48,3.3c-3.15,5.26,2,11.95,7.88,10.26a.78.78,0,0,0,.21-.09l10.34-5.55a11,11,0,0,0-1.39,3.38h0A11.07,11.07,0,0,0,29.4,53.68a2.72,2.72,0,0,0,.05.49l1.57,7a1,1,0,0,0,2,0l1.57-7h0a2.61,2.61,0,0,0,.05-.48c7-1.52,10.77-10.39,6.74-16.48l10.35,5.56C60.75,45.26,64.55,32.07,55.53,29.32ZM27,25.43a7.36,7.36,0,0,1,2.83-1.94,5.09,5.09,0,0,0,4.75-.2,7.47,7.47,0,0,1,4,2.78,7.64,7.64,0,0,1-12-.06A5.09,5.09,0,0,1,27,25.43Zm-1.81,3.4a7.8,7.8,0,0,1,.31-.93A9.55,9.55,0,0,0,39,28.39,10.2,10.2,0,0,1,40,29.81s0,.07,0,.1a5.53,5.53,0,0,1,0,1.15,1.09,1.09,0,0,0-1-.51,1,1,0,0,0-.72.36,7.54,7.54,0,0,1-11.92-.48A1,1,0,0,0,25,30.17c0-.08,0-.17,0-.25h0a7.8,7.8,0,0,1,.15-1.08Zm14.13,4.78a7.43,7.43,0,0,1-1,1.68,7.55,7.55,0,0,1-11.94-.52,3.87,3.87,0,0,1-.34-.54,6.86,6.86,0,0,1-.68-1.63l.12-.12A9.55,9.55,0,0,0,39,33a5.3,5.3,0,0,1,.34.45ZM24.55,38a9.72,9.72,0,0,1,.89-1.12A9.57,9.57,0,0,0,39,37.41a7.12,7.12,0,0,1,.76,1.12c-3.24,5.9-12.33,5.9-15.56,0C24.33,38.33,24.43,38.15,24.55,38Zm-1.24,2.74c4.11,5.66,13.27,5.66,17.38,0,0,0,0,.08,0,.12-2.37,9-15.09,9-17.46,0C23.28,40.79,23.3,40.75,23.31,40.71ZM51.08,11.8c7-3.62,12.72,6.25,6.09,10.54l-15.8,4.75a9.78,9.78,0,0,0-2.59-3.72ZM34.93,18.68A1.93,1.93,0,0,1,34,16.8a3,3,0,0,1,1,1.91ZM38,17a2,2,0,0,1-1,1.73,5,5,0,0,0-1.77-3.56A2,2,0,0,1,38,17ZM37.71,6.71A6.62,6.62,0,0,1,42,5a1,1,0,0,1,0,2,10.9,10.9,0,0,0-4.45,1.11,5,5,0,0,0-1.49,1.26A7.65,7.65,0,0,1,37.71,6.71ZM32.12,16a4,4,0,0,0,2.35,4.7,3,3,0,0,1-4.94,0A4.05,4.05,0,0,0,31.88,16ZM30,16.8a1.91,1.91,0,0,1-1,1.91A3,3,0,0,1,30,16.8ZM26.45,8.11A10.9,10.9,0,0,0,22,7a1,1,0,0,1,0-2,6.33,6.33,0,0,1,6,4.37A5,5,0,0,0,26.45,8.11ZM26,17a2,2,0,0,1,2.79-1.83A5,5,0,0,0,27,18.73,2,2,0,0,1,26,17ZM4.71,14.08a6.11,6.11,0,0,1,8.21-2.28l12.81,12a10.1,10.1,0,0,0-2.2,3.52l-16.7-5A6.11,6.11,0,0,1,4.71,14.08Zm6.76,26.86c-6.31,1.4-8.74-7.71-2.59-9.65L23,30.86a9.81,9.81,0,0,0,.79,3.46ZM32,56.4a23.29,23.29,0,0,1-.58-3,.61.61,0,0,1,1.16,0,.57.57,0,0,1,0,.32Zm1.87-4.6a2.63,2.63,0,0,0-3.74,0,9,9,0,0,1-6.81-6.45,11,11,0,0,0,17.36,0A9,9,0,0,1,33.87,51.8ZM58.54,37.38a5,5,0,0,1-6,3.56L41,34.75c.15-.35.31-.69.44-1h0A10.37,10.37,0,0,0,42,30.89l13.13.4A5,5,0,0,1,58.54,37.38Z"/></g></svg>