<?xml version="1.0" encoding="UTF-8"?>
<!DOCTYPE svg PUBLIC "-//W3C//DTD SVG 1.1//EN" "http://www.w3.org/Graphics/SVG/1.1/DTD/svg11.dtd">
<svg xmlns="http://www.w3.org/2000/svg" version="1.1" width="78px" height="85px" style="shape-rendering:geometricPrecision; text-rendering:geometricPrecision; image-rendering:optimizeQuality; fill-rule:evenodd; clip-rule:evenodd" xmlns:xlink="http://www.w3.org/1999/xlink">
<g><path style="opacity:1" fill="#fbfbfa" d="M -0.5,-0.5 C 9.83333,-0.5 20.1667,-0.5 30.5,-0.5C 31.3235,1.45464 31.4901,3.45464 31,5.5C 30.3946,3.51877 29.3946,3.18543 28,4.5C 24.8069,2.24259 21.6402,2.57592 18.5,5.5C 19.1272,6.41683 19.4606,7.41683 19.5,8.5C 19.5,9.16667 19.5,9.83333 19.5,10.5C 18.5,11.1667 17.5,11.8333 16.5,12.5C 11.9642,12.7027 9.29756,15.036 8.5,19.5C 7.40191,20.397 7.40191,21.2303 8.5,22C 7.26253,22.2321 6.26253,22.7321 5.5,23.5C 3.73758,24.2623 2.73758,25.5956 2.5,27.5C 1.5,27.5 0.5,27.5 -0.5,27.5C -0.5,18.1667 -0.5,8.83333 -0.5,-0.5 Z"/></g>
<g><path style="opacity:1" fill="#926a59" d="M 24.5,15.5 C 23.5,15.5 22.5,15.5 21.5,15.5C 21.3433,14.1266 21.51,12.7932 22,11.5C 23.4866,10.8448 24.6533,9.84484 25.5,8.5C 25.1667,8.16667 24.8333,7.83333 24.5,7.5C 23.2742,9.27789 21.6075,10.2779 19.5,10.5C 19.5,9.83333 19.5,9.16667 19.5,8.5C 26.1775,3.50463 29.8442,5.1713 30.5,13.5C 28.3146,13.7036 26.3146,14.3702 24.5,15.5 Z"/></g>
<g><path style="opacity:1" fill="#8f655f" d="M 57.5,7.5 C 58.5,8.83333 59.5,10.1667 60.5,11.5C 59.8258,16.1514 57.1592,17.6514 52.5,16C 50.3813,13.7815 50.048,11.2815 51.5,8.5C 53.4086,7.65178 55.4086,7.31845 57.5,7.5 Z"/></g>
<g><path style="opacity:1" fill="#fbdbc7" d="M 25.5,10.5 C 26.7125,11.4971 26.5458,12.4971 25,13.5C 24.5304,12.4232 24.6971,11.4232 25.5,10.5 Z"/></g>
<g><path style="opacity:1" fill="#f8f3ee" d="M 30.5,-0.5 C 36.8333,-0.5 43.1667,-0.5 49.5,-0.5C 49.3184,1.59136 49.6518,3.59136 50.5,5.5C 52.9688,6.16805 55.3021,6.83472 57.5,7.5C 55.4086,7.31845 53.4086,7.65178 51.5,8.5C 50.048,11.2815 50.3813,13.7815 52.5,16C 57.1592,17.6514 59.8258,16.1514 60.5,11.5C 62.4121,11.4877 64.4121,11.821 66.5,12.5C 64.2294,14.2659 62.0627,16.2659 60,18.5C 59.5172,19.448 59.3505,20.448 59.5,21.5C 62.6611,20.5302 65.4944,18.8635 68,16.5C 70.0807,14.4434 69.914,12.7767 67.5,11.5C 68.4616,9.01445 69.2949,9.01445 70,11.5C 70.3333,10.8333 70.6667,10.1667 71,9.5C 73.6931,14.5079 72.1931,17.6745 66.5,19C 67.1667,19.6667 67.8333,20.3333 68.5,21C 67.244,21.4169 66.5774,22.2502 66.5,23.5C 65.5,22.1667 64.5,22.1667 63.5,23.5C 61.8008,23.3398 60.1341,23.5065 58.5,24C 57.5783,26.294 56.5783,28.4606 55.5,30.5C 53.7211,28.6565 51.3878,27.9898 48.5,28.5C 48.1667,28.5 47.8333,28.5 47.5,28.5C 46.0706,24.9288 43.7372,22.2622 40.5,20.5C 38.056,17.5437 35.056,16.877 31.5,18.5C 28.2638,17.1614 25.7638,18.1614 24,21.5C 22.1079,20.3826 21.2746,18.7159 21.5,16.5C 22.791,16.7373 23.791,16.404 24.5,15.5C 26.3146,14.3702 28.3146,13.7036 30.5,13.5C 29.8442,5.1713 26.1775,3.50463 19.5,8.5C 19.4606,7.41683 19.1272,6.41683 18.5,5.5C 21.6402,2.57592 24.8069,2.24259 28,4.5C 29.3946,3.18543 30.3946,3.51877 31,5.5C 31.4901,3.45464 31.3235,1.45464 30.5,-0.5 Z"/></g>
<g><path style="opacity:1" fill="#f5daca" d="M 54.5,9.5 C 55.9953,9.41483 56.9953,10.0815 57.5,11.5C 56.9234,13.5499 55.5901,14.5499 53.5,14.5C 53.6287,12.7839 53.962,11.1172 54.5,9.5 Z"/></g>
<g><path style="opacity:1" fill="#94665a" d="M 42.5,3.5 C 44.6957,3.56522 46.6957,4.23188 48.5,5.5C 45.8753,7.08144 44.542,9.41477 44.5,12.5C 43.5,12.5 42.5,12.5 41.5,12.5C 41.3677,9.42994 41.701,6.42994 42.5,3.5 Z"/></g>
<g><path style="opacity:1" fill="#9d6a5c" d="M 34.5,0.5 C 37.4679,2.09431 38.4679,4.42764 37.5,7.5C 38.5471,9.05641 39.2137,10.7231 39.5,12.5C 37.2341,12.8588 35.4007,12.1922 34,10.5C 32.3206,6.93824 32.4872,3.60491 34.5,0.5 Z"/></g>
<g><path style="opacity:1" fill="#8e685f" d="M 67.5,11.5 C 69.914,12.7767 70.0807,14.4434 68,16.5C 65.4944,18.8635 62.6611,20.5302 59.5,21.5C 59.3505,20.448 59.5172,19.448 60,18.5C 62.0627,16.2659 64.2294,14.2659 66.5,12.5C 66.5,11.8333 66.8333,11.5 67.5,11.5 Z"/></g>
<g><path style="opacity:1" fill="#946559" d="M 16.5,12.5 C 20.3716,15.5982 20.3716,18.5982 16.5,21.5C 18.2701,22.8196 18.6034,24.3196 17.5,26C 16.8333,26.6667 16.1667,26.6667 15.5,26C 13.2968,23.6278 10.9635,21.4611 8.5,19.5C 9.29756,15.036 11.9642,12.7027 16.5,12.5 Z"/></g>
<g><path style="opacity:1" fill="#fbe1d1" d="M 12.5,16.5 C 16.1611,16.4257 16.8277,17.4257 14.5,19.5C 13.0815,18.9953 12.4148,17.9953 12.5,16.5 Z"/></g>
<g><path style="opacity:1" fill="#e0d0cc" d="M 40.5,20.5 C 41.2899,21.7942 42.2899,22.9609 43.5,24C 42.8742,24.7504 42.3742,25.5838 42,26.5C 41.3109,25.6433 40.4776,24.9767 39.5,24.5C 38.7174,26.2882 37.3841,27.2882 35.5,27.5C 32.6083,26.0528 30.9417,23.7194 30.5,20.5C 30.8333,19.8333 31.1667,19.1667 31.5,18.5C 35.056,16.877 38.056,17.5437 40.5,20.5 Z"/></g>
<g><path style="opacity:1" fill="#fafbf9" d="M 49.5,-0.5 C 58.8333,-0.5 68.1667,-0.5 77.5,-0.5C 77.5,8.5 77.5,17.5 77.5,26.5C 76.2502,26.4226 75.4169,25.756 75,24.5C 72.6194,25.435 70.1194,25.7683 67.5,25.5C 67.1667,24.8333 66.8333,24.1667 66.5,23.5C 66.5774,22.2502 67.244,21.4169 68.5,21C 67.8333,20.3333 67.1667,19.6667 66.5,19C 72.1931,17.6745 73.6931,14.5079 71,9.5C 70.6667,10.1667 70.3333,10.8333 70,11.5C 69.2949,9.01445 68.4616,9.01445 67.5,11.5C 66.8333,11.5 66.5,11.8333 66.5,12.5C 64.4121,11.821 62.4121,11.4877 60.5,11.5C 59.5,10.1667 58.5,8.83333 57.5,7.5C 55.3021,6.83472 52.9688,6.16805 50.5,5.5C 49.6518,3.59136 49.3184,1.59136 49.5,-0.5 Z"/></g>
<g><path style="opacity:1" fill="#846462" d="M 66.5,23.5 C 66.8333,24.1667 67.1667,24.8333 67.5,25.5C 66.0387,26.6857 64.7054,26.6857 63.5,25.5C 63.5,24.8333 63.5,24.1667 63.5,23.5C 64.5,22.1667 65.5,22.1667 66.5,23.5 Z"/></g>
<g><path style="opacity:1" fill="#c2afa6" d="M 40.5,20.5 C 43.7372,22.2622 46.0706,24.9288 47.5,28.5C 46.5084,28.3284 45.8417,28.6618 45.5,29.5C 44.8333,29.5 44.1667,29.5 43.5,29.5C 43.6107,28.8826 43.944,28.3826 44.5,28C 41.3489,25.8418 39.0155,26.3418 37.5,29.5C 36.5,29.1667 35.8333,28.5 35.5,27.5C 37.3841,27.2882 38.7174,26.2882 39.5,24.5C 40.4776,24.9767 41.3109,25.6433 42,26.5C 42.3742,25.5838 42.8742,24.7504 43.5,24C 42.2899,22.9609 41.2899,21.7942 40.5,20.5 Z"/></g>
<g><path style="opacity:1" fill="#beb1ac" d="M 63.5,23.5 C 63.5,24.1667 63.5,24.8333 63.5,25.5C 62.2618,24.5876 60.9285,24.4209 59.5,25C 58.9298,27.7555 57.9298,30.2555 56.5,32.5C 56.1667,31.8333 55.8333,31.1667 55.5,30.5C 56.5783,28.4606 57.5783,26.294 58.5,24C 60.1341,23.5065 61.8008,23.3398 63.5,23.5 Z"/></g>
<g><path style="opacity:1" fill="#f8efe9" d="M 24.5,15.5 C 23.791,16.404 22.791,16.7373 21.5,16.5C 21.2746,18.7159 22.1079,20.3826 24,21.5C 25.7638,18.1614 28.2638,17.1614 31.5,18.5C 31.1667,19.1667 30.8333,19.8333 30.5,20.5C 28.5891,20.5743 27.4224,21.5743 27,23.5C 26,22.1667 25,22.1667 24,23.5C 23.5026,26.146 23.3359,28.8127 23.5,31.5C 19.5,30.8333 17.8333,32.5 18.5,36.5C 19.791,36.2627 20.791,36.596 21.5,37.5C 19.1133,37.9121 17.1133,38.9121 15.5,40.5C 14.7463,43.0227 14.0796,45.6894 13.5,48.5C 15.5819,49.8943 17.2486,49.561 18.5,47.5C 21.1979,47.1551 23.1979,45.8218 24.5,43.5C 26.2838,43.1075 27.9505,42.4408 29.5,41.5C 29.8333,41.5 30.1667,41.5 30.5,41.5C 30.4326,42.9587 30.7659,44.2921 31.5,45.5C 30.5084,45.3284 29.8417,45.6618 29.5,46.5C 29.8844,49.0496 31.3844,50.3829 34,50.5C 35.3756,50.3158 36.2089,49.6491 36.5,48.5C 36.9377,47.4937 37.6043,47.4937 38.5,48.5C 38.1814,50.7505 38.6814,52.7505 40,54.5C 40.2784,53.5842 40.7784,52.9175 41.5,52.5C 41.7989,54.604 41.4656,56.604 40.5,58.5C 37.4037,57.2977 34.737,55.631 32.5,53.5C 32.6107,52.8826 32.944,52.3826 33.5,52C 32.2506,51.2599 31.2506,51.4265 30.5,52.5C 29.6906,51.5313 28.6906,50.6979 27.5,50C 27.6938,48.5701 27.6938,47.0701 27.5,45.5C 22.7703,47.7107 18.7703,50.8774 15.5,55C 16.9525,56.5648 18.6191,57.8982 20.5,59C 19.6198,60.3561 19.2865,61.8561 19.5,63.5C 18.596,62.791 18.2627,61.791 18.5,60.5C 17.0695,60.5792 15.7362,60.2458 14.5,59.5C 13.4822,60.1925 12.4822,60.8592 11.5,61.5C 9.65223,61.6143 7.65223,61.2809 5.5,60.5C 8.10404,59.5248 10.4374,58.0248 12.5,56C 11.5007,49.6038 8.16739,47.9371 2.5,51C 1.06516,53.2672 1.3985,55.2672 3.5,57C 2.55198,57.4828 1.55198,57.6495 0.5,57.5C 0.156841,59.4832 0.823507,60.8166 2.5,61.5C 1.79105,62.404 0.791047,62.7373 -0.5,62.5C -0.5,56.5 -0.5,50.5 -0.5,44.5C 6.9685,48.04 9.63516,45.7067 7.5,37.5C 6.02977,43.9592 5.3631,43.6258 5.5,36.5C 3.43525,36.5172 1.43525,36.8505 -0.5,37.5C -0.5,34.1667 -0.5,30.8333 -0.5,27.5C 0.5,27.5 1.5,27.5 2.5,27.5C 2.13628,32.6589 4.46961,34.4922 9.5,33C 11.4439,30.8471 11.9439,28.3471 11,25.5C 10.0201,27.0589 9.18673,28.7256 8.5,30.5C 7.89665,28.5477 8.22999,26.5477 9.5,24.5C 8.31116,23.5713 6.97782,23.238 5.5,23.5C 6.26253,22.7321 7.26253,22.2321 8.5,22C 7.40191,21.2303 7.40191,20.397 8.5,19.5C 10.9635,21.4611 13.2968,23.6278 15.5,26C 16.1667,26.6667 16.8333,26.6667 17.5,26C 18.6034,24.3196 18.2701,22.8196 16.5,21.5C 20.3716,18.5982 20.3716,15.5982 16.5,12.5C 17.5,11.8333 18.5,11.1667 19.5,10.5C 21.6075,10.2779 23.2742,9.27789 24.5,7.5C 24.8333,7.83333 25.1667,8.16667 25.5,8.5C 24.6533,9.84484 23.4866,10.8448 22,11.5C 21.51,12.7932 21.3433,14.1266 21.5,15.5C 22.5,15.5 23.5,15.5 24.5,15.5 Z"/></g>
<g><path style="opacity:1" fill="#ede0d6" d="M 43.5,29.5 C 43.5,30.1667 43.1667,30.5 42.5,30.5C 42.189,29.5222 41.5223,28.8555 40.5,28.5C 39.3044,28.8457 39.3044,29.3457 40.5,30C 39.9056,30.4643 39.2389,30.631 38.5,30.5C 38.5,29.8333 38.1667,29.5 37.5,29.5C 39.0155,26.3418 41.3489,25.8418 44.5,28C 43.944,28.3826 43.6107,28.8826 43.5,29.5 Z"/></g>
<g><path style="opacity:1" fill="#996351" d="M 30.5,20.5 C 30.9417,23.7194 32.6083,26.0528 35.5,27.5C 35.8333,28.5 36.5,29.1667 37.5,29.5C 38.1667,29.5 38.5,29.8333 38.5,30.5C 37.8333,30.5 37.1667,30.5 36.5,30.5C 32.1018,30.2941 27.7685,30.6274 23.5,31.5C 23.3359,28.8127 23.5026,26.146 24,23.5C 25,22.1667 26,22.1667 27,23.5C 27.4224,21.5743 28.5891,20.5743 30.5,20.5 Z"/></g>
<g><path style="opacity:1" fill="#94665c" d="M 5.5,23.5 C 6.97782,23.238 8.31116,23.5713 9.5,24.5C 8.22999,26.5477 7.89665,28.5477 8.5,30.5C 9.18673,28.7256 10.0201,27.0589 11,25.5C 11.9439,28.3471 11.4439,30.8471 9.5,33C 4.46961,34.4922 2.13628,32.6589 2.5,27.5C 2.73758,25.5956 3.73758,24.2623 5.5,23.5 Z"/></g>
<g><path style="opacity:1" fill="#f8d0c0" d="M 4.5,26.5 C 6.97323,26.9473 7.13989,27.9473 5,29.5C 4.51722,28.552 4.35055,27.552 4.5,26.5 Z"/></g>
<g><path style="opacity:1" fill="#985e4d" d="M 47.5,28.5 C 47.8333,28.5 48.1667,28.5 48.5,28.5C 49.9516,29.3019 51.6183,29.8019 53.5,30C 52.552,30.4828 51.552,30.6495 50.5,30.5C 51.0103,35.1692 49.6769,36.1692 46.5,33.5C 46.1667,33.5 45.8333,33.5 45.5,33.5C 45.5,32.1667 45.5,30.8333 45.5,29.5C 45.8417,28.6618 46.5084,28.3284 47.5,28.5 Z"/></g>
<g><path style="opacity:1" fill="#e2b5a4" d="M 36.5,30.5 C 36.5,31.1667 36.1667,31.5 35.5,31.5C 33.1432,31.3367 30.8098,31.5034 28.5,32C 29.7932,32.49 31.1266,32.6567 32.5,32.5C 32.5,33.5 32.5,34.5 32.5,35.5C 32.1667,35.5 31.8333,35.5 31.5,35.5C 30.6879,34.0069 29.3545,33.3402 27.5,33.5C 26.0055,33.7092 24.8388,34.3759 24,35.5C 23.51,34.2068 23.3433,32.8734 23.5,31.5C 27.7685,30.6274 32.1018,30.2941 36.5,30.5 Z"/></g>
<g><path style="opacity:1" fill="#ae7a6c" d="M 35.5,31.5 C 35.5323,33.6188 34.5323,34.9522 32.5,35.5C 32.5,34.5 32.5,33.5 32.5,32.5C 31.1266,32.6567 29.7932,32.49 28.5,32C 30.8098,31.5034 33.1432,31.3367 35.5,31.5 Z"/></g>
<g><path style="opacity:1" fill="#bba296" d="M 42.5,30.5 C 42.5,30.8333 42.5,31.1667 42.5,31.5C 41.1266,31.3433 39.7932,31.51 38.5,32C 39.8333,32.6667 39.8333,33.3333 38.5,34C 36.4234,35.705 34.09,36.8717 31.5,37.5C 31.5,36.8333 31.5,36.1667 31.5,35.5C 31.8333,35.5 32.1667,35.5 32.5,35.5C 34.5323,34.9522 35.5323,33.6188 35.5,31.5C 36.1667,31.5 36.5,31.1667 36.5,30.5C 37.1667,30.5 37.8333,30.5 38.5,30.5C 39.2389,30.631 39.9056,30.4643 40.5,30C 39.3044,29.3457 39.3044,28.8457 40.5,28.5C 41.5223,28.8555 42.189,29.5222 42.5,30.5 Z"/></g>
<g><path style="opacity:1" fill="#9d695a" d="M 23.5,31.5 C 23.3433,32.8734 23.51,34.2068 24,35.5C 24.8388,34.3759 26.0055,33.7092 27.5,33.5C 29.3545,33.3402 30.6879,34.0069 31.5,35.5C 31.5,36.1667 31.5,36.8333 31.5,37.5C 29.8941,38.3591 28.2275,38.5258 26.5,38C 28.0629,38.7589 29.0629,39.9256 29.5,41.5C 27.9505,42.4408 26.2838,43.1075 24.5,43.5C 25.1495,41.5648 25.4828,39.5648 25.5,37.5C 24.1667,37.5 22.8333,37.5 21.5,37.5C 20.791,36.596 19.791,36.2627 18.5,36.5C 17.8333,32.5 19.5,30.8333 23.5,31.5 Z"/></g>
<g><path style="opacity:1" fill="#9e7066" d="M 43.5,29.5 C 44.1667,29.5 44.8333,29.5 45.5,29.5C 45.5,30.8333 45.5,32.1667 45.5,33.5C 43.5698,37.1002 40.9031,40.1002 37.5,42.5C 35.8333,41.6667 34.1667,40.8333 32.5,40C 35.0482,37.5584 38.0482,35.8917 41.5,35C 43.3731,34.0471 43.7065,32.8804 42.5,31.5C 42.5,31.1667 42.5,30.8333 42.5,30.5C 43.1667,30.5 43.5,30.1667 43.5,29.5 Z"/></g>
<g><path style="opacity:1" fill="#a68275" d="M 48.5,28.5 C 51.3878,27.9898 53.7211,28.6565 55.5,30.5C 55.8333,31.1667 56.1667,31.8333 56.5,32.5C 55.1667,32.5 54.5,33.1667 54.5,34.5C 54.573,36.0269 53.9063,37.0269 52.5,37.5C 50.6214,37.3932 50.2881,37.8932 51.5,39C 53.2475,39.3519 54.9142,39.8519 56.5,40.5C 57.9979,46.5008 57.1646,46.8342 54,41.5C 50.9377,43.1305 49.271,42.1305 49,38.5C 48.1078,41.2729 46.2745,42.9395 43.5,43.5C 44.9541,41.4285 46.2875,39.2619 47.5,37C 47.0109,35.8615 46.6775,34.6948 46.5,33.5C 49.6769,36.1692 51.0103,35.1692 50.5,30.5C 51.552,30.6495 52.552,30.4828 53.5,30C 51.6183,29.8019 49.9516,29.3019 48.5,28.5 Z"/></g>
<g><path style="opacity:1" fill="#fce5db" d="M 52.5,37.5 C 54.2191,38.0221 55.5525,39.0221 56.5,40.5C 54.9142,39.8519 53.2475,39.3519 51.5,39C 50.2881,37.8932 50.6214,37.3932 52.5,37.5 Z"/></g>
<g><path style="opacity:1" fill="#b8a59d" d="M 66.5,31.5 C 66.5,31.8333 66.5,32.1667 66.5,32.5C 63.8619,33.4916 61.1952,34.4916 58.5,35.5C 57.1515,37.6114 57.4848,39.4447 59.5,41C 58.4232,41.4696 57.4232,41.3029 56.5,40.5C 55.5525,39.0221 54.2191,38.0221 52.5,37.5C 53.9063,37.0269 54.573,36.0269 54.5,34.5C 58.5322,33.7152 62.5322,32.7152 66.5,31.5 Z"/></g>
<g><path style="opacity:1" fill="#e7cbc0" d="M 42.5,31.5 C 43.7065,32.8804 43.3731,34.0471 41.5,35C 38.0482,35.8917 35.0482,37.5584 32.5,40C 34.1667,40.8333 35.8333,41.6667 37.5,42.5C 40.9031,40.1002 43.5698,37.1002 45.5,33.5C 45.8333,33.5 46.1667,33.5 46.5,33.5C 46.6775,34.6948 47.0109,35.8615 47.5,37C 46.2875,39.2619 44.9541,41.4285 43.5,43.5C 42.5,44.1667 41.5,44.8333 40.5,45.5C 38.9519,45.8212 38.2852,46.8212 38.5,48.5C 37.6043,47.4937 36.9377,47.4937 36.5,48.5C 34.079,48.1218 31.7457,47.4552 29.5,46.5C 29.8417,45.6618 30.5084,45.3284 31.5,45.5C 33.4352,46.1495 35.4352,46.4828 37.5,46.5C 36.5392,43.1653 34.2059,41.4986 30.5,41.5C 30.1667,41.5 29.8333,41.5 29.5,41.5C 29.0629,39.9256 28.0629,38.7589 26.5,38C 28.2275,38.5258 29.8941,38.3591 31.5,37.5C 34.09,36.8717 36.4234,35.705 38.5,34C 39.8333,33.3333 39.8333,32.6667 38.5,32C 39.7932,31.51 41.1266,31.3433 42.5,31.5 Z"/></g>
<g><path style="opacity:1" fill="#986958" d="M 77.5,40.5 C 77.5,42.8333 77.5,45.1667 77.5,47.5C 76.5,47.5 75.5,47.5 74.5,47.5C 73.9694,44.2206 71.9694,42.8872 68.5,43.5C 68.5,42.5 68.5,41.5 68.5,40.5C 71.5,40.5 74.5,40.5 77.5,40.5 Z"/></g>
<g><path style="opacity:1" fill="#96695b" d="M -0.5,44.5 C -0.5,42.1667 -0.5,39.8333 -0.5,37.5C 1.43525,36.8505 3.43525,36.5172 5.5,36.5C 5.3631,43.6258 6.02977,43.9592 7.5,37.5C 9.63516,45.7067 6.9685,48.04 -0.5,44.5 Z"/></g>
<g><path style="opacity:1" fill="#f9d9c0" d="M 2.5,39.5 C 3.7759,40.3864 3.7759,41.3864 2.5,42.5C 1.43764,41.5754 1.43764,40.5754 2.5,39.5 Z"/></g>
<g><path style="opacity:1" fill="#9f5c48" d="M 21.5,37.5 C 22.8333,37.5 24.1667,37.5 25.5,37.5C 25.4828,39.5648 25.1495,41.5648 24.5,43.5C 23.1979,45.8218 21.1979,47.1551 18.5,47.5C 17.5,47.5 16.5,47.5 15.5,47.5C 15.5,45.1667 15.5,42.8333 15.5,40.5C 17.1133,38.9121 19.1133,37.9121 21.5,37.5 Z"/></g>
<g><path style="opacity:1" fill="#956559" d="M 30.5,41.5 C 34.2059,41.4986 36.5392,43.1653 37.5,46.5C 35.4352,46.4828 33.4352,46.1495 31.5,45.5C 30.7659,44.2921 30.4326,42.9587 30.5,41.5 Z"/></g>
<g><path style="opacity:1" fill="#f9f4f0" d="M 63.5,25.5 C 64.7054,26.6857 66.0387,26.6857 67.5,25.5C 70.1194,25.7683 72.6194,25.435 75,24.5C 75.4169,25.756 76.2502,26.4226 77.5,26.5C 77.5,31.1667 77.5,35.8333 77.5,40.5C 74.5,40.5 71.5,40.5 68.5,40.5C 68.5,41.5 68.5,42.5 68.5,43.5C 71.9694,42.8872 73.9694,44.2206 74.5,47.5C 75.5,47.5 76.5,47.5 77.5,47.5C 77.5,52.1667 77.5,56.8333 77.5,61.5C 73.8183,61.3347 70.1516,61.5014 66.5,62C 67.7604,63.113 68.927,63.2797 70,62.5C 70.1667,63.1667 70.3333,63.8333 70.5,64.5C 68.9579,65.0684 68.1245,66.7351 68,69.5C 66.9125,67.0684 66.4125,67.4017 66.5,70.5C 63.9899,70.9465 61.9899,70.2798 60.5,68.5C 65.0117,68.1383 66.5117,65.805 65,61.5C 62.7585,59.2854 60.2585,58.9521 57.5,60.5C 56.8333,60.5 56.1667,60.5 55.5,60.5C 56.3429,58.1641 56.8429,55.8307 57,53.5C 53.8123,53.7588 50.8123,54.4255 48,55.5C 47.3603,53.735 47.5269,52.0683 48.5,50.5C 44.8345,46.2764 42.5012,46.9431 41.5,52.5C 41.0074,50.1944 40.6741,47.861 40.5,45.5C 41.5,44.8333 42.5,44.1667 43.5,43.5C 46.2745,42.9395 48.1078,41.2729 49,38.5C 49.271,42.1305 50.9377,43.1305 54,41.5C 57.1646,46.8342 57.9979,46.5008 56.5,40.5C 57.4232,41.3029 58.4232,41.4696 59.5,41C 57.4848,39.4447 57.1515,37.6114 58.5,35.5C 61.1952,34.4916 63.8619,33.4916 66.5,32.5C 67.763,37.185 70.5964,38.5184 75,36.5C 77.7321,29.7784 75.5655,26.945 68.5,28C 67.1772,28.8159 66.5106,29.9826 66.5,31.5C 62.5322,32.7152 58.5322,33.7152 54.5,34.5C 54.5,33.1667 55.1667,32.5 56.5,32.5C 57.9298,30.2555 58.9298,27.7555 59.5,25C 60.9285,24.4209 62.2618,24.5876 63.5,25.5 Z"/></g>
<g><path style="opacity:1" fill="#956a5c" d="M 66.5,32.5 C 66.5,32.1667 66.5,31.8333 66.5,31.5C 66.5106,29.9826 67.1772,28.8159 68.5,28C 75.5655,26.945 77.7321,29.7784 75,36.5C 70.5964,38.5184 67.763,37.185 66.5,32.5 Z"/></g>
<g><path style="opacity:1" fill="#fde4d7" d="M 70.5,30.5 C 71.5,30.5 72.5,30.5 73.5,30.5C 73.5,31.5 73.5,32.5 73.5,33.5C 70.4331,33.8795 69.4331,32.8795 70.5,30.5 Z"/></g>
<g><path style="opacity:1" fill="#98786a" d="M 15.5,40.5 C 15.5,42.8333 15.5,45.1667 15.5,47.5C 16.5,47.5 17.5,47.5 18.5,47.5C 17.2486,49.561 15.5819,49.8943 13.5,48.5C 14.0796,45.6894 14.7463,43.0227 15.5,40.5 Z"/></g>
<g><path style="opacity:1" fill="#8f6e63" d="M 29.5,46.5 C 31.7457,47.4552 34.079,48.1218 36.5,48.5C 36.2089,49.6491 35.3756,50.3158 34,50.5C 31.3844,50.3829 29.8844,49.0496 29.5,46.5 Z"/></g>
<g><path style="opacity:1" fill="#8d7372" d="M 48.5,50.5 C 45.7362,41.5096 46.7362,41.3429 51.5,50C 50.8235,51.6833 49.8235,51.8499 48.5,50.5 Z"/></g>
<g><path style="opacity:1" fill="#9c7974" d="M 40.5,45.5 C 40.6741,47.861 41.0074,50.1944 41.5,52.5C 40.7784,52.9175 40.2784,53.5842 40,54.5C 38.6814,52.7505 38.1814,50.7505 38.5,48.5C 38.2852,46.8212 38.9519,45.8212 40.5,45.5 Z"/></g>
<g><path style="opacity:1" fill="#94675a" d="M 5.5,60.5 C 4.39105,60.5569 3.39105,60.8902 2.5,61.5C 0.823507,60.8166 0.156841,59.4832 0.5,57.5C 1.55198,57.6495 2.55198,57.4828 3.5,57C 1.3985,55.2672 1.06516,53.2672 2.5,51C 8.16739,47.9371 11.5007,49.6038 12.5,56C 10.4374,58.0248 8.10404,59.5248 5.5,60.5 Z"/></g>
<g><path style="opacity:1" fill="#fafbfa" d="M 30.5,52.5 C 30.4088,54.6977 31.0755,55.0311 32.5,53.5C 34.737,55.631 37.4037,57.2977 40.5,58.5C 41.4656,56.604 41.7989,54.604 41.5,52.5C 42.5012,46.9431 44.8345,46.2764 48.5,50.5C 47.5269,52.0683 47.3603,53.735 48,55.5C 50.8123,54.4255 53.8123,53.7588 57,53.5C 56.8429,55.8307 56.3429,58.1641 55.5,60.5C 56.2455,62.136 55.9122,63.8027 54.5,65.5C 52.7086,66.1698 51.0419,66.8365 49.5,67.5C 48.7784,67.0825 48.2784,66.4158 48,65.5C 47.6667,65.8333 47.3333,66.1667 47,66.5C 45.8061,65.5697 44.4728,64.9031 43,64.5C 40.9534,65.6094 38.7867,66.2761 36.5,66.5C 35.828,65.7326 34.9947,65.0659 34,64.5C 31.5335,65.7883 29.0335,65.7883 26.5,64.5C 25.6721,65.4147 24.6721,66.0814 23.5,66.5C 22.1331,65.7745 20.7997,65.1079 19.5,64.5C 19.5,64.1667 19.5,63.8333 19.5,63.5C 19.2865,61.8561 19.6198,60.3561 20.5,59C 18.6191,57.8982 16.9525,56.5648 15.5,55C 18.7703,50.8774 22.7703,47.7107 27.5,45.5C 27.6938,47.0701 27.6938,48.5701 27.5,50C 28.6906,50.6979 29.6906,51.5313 30.5,52.5 Z"/></g>
<g><path style="opacity:1" fill="#7d6763" d="M 32.5,53.5 C 31.0755,55.0311 30.4088,54.6977 30.5,52.5C 31.2506,51.4265 32.2506,51.2599 33.5,52C 32.944,52.3826 32.6107,52.8826 32.5,53.5 Z"/></g>
<g><path style="opacity:1" fill="#e3bdb2" d="M 64.5,48.5 C 64.9169,47.8761 65.5836,47.5427 66.5,47.5C 67.7133,47.7472 68.38,48.4138 68.5,49.5C 67.9886,51.1947 67.3219,52.8614 66.5,54.5C 65.5,54.1667 64.8333,53.5 64.5,52.5C 67.812,50.1551 67.812,48.8218 64.5,48.5 Z"/></g>
<g><path style="opacity:1" fill="#f6d4c1" d="M 5.5,52.5 C 6.5,52.5 7.5,52.5 8.5,52.5C 8.5,53.5 8.5,54.5 8.5,55.5C 5.43311,55.8795 4.43311,54.8795 5.5,52.5 Z"/></g>
<g><path style="opacity:1" fill="#946559" d="M 64.5,48.5 C 67.812,48.8218 67.812,50.1551 64.5,52.5C 64.8333,53.5 65.5,54.1667 66.5,54.5C 67.3219,52.8614 67.9886,51.1947 68.5,49.5C 73.5011,48.6714 75.6678,50.6714 75,55.5C 74.0201,57.0589 73.1867,58.7256 72.5,60.5C 69.2606,59.2957 66.094,57.9624 63,56.5C 62.1093,53.5024 62.6093,50.8357 64.5,48.5 Z"/></g>
<g><path style="opacity:1" fill="#fce0c9" d="M 69.5,52.5 C 70.9953,52.4148 71.9953,53.0815 72.5,54.5C 69.6232,55.9109 68.6232,55.2442 69.5,52.5 Z"/></g>
<g><path style="opacity:1" fill="#fcfcfc" d="M 77.5,61.5 C 77.5,69.1667 77.5,76.8333 77.5,84.5C 64.8333,84.5 52.1667,84.5 39.5,84.5C 41.1639,83.2568 42.3305,81.5902 43,79.5C 45.8108,81.1797 47.6441,80.5131 48.5,77.5C 51.1368,76.8359 53.8035,76.1693 56.5,75.5C 56.974,72.7833 57.974,70.4499 59.5,68.5C 59.8333,68.5 60.1667,68.5 60.5,68.5C 61.9899,70.2798 63.9899,70.9465 66.5,70.5C 66.4125,67.4017 66.9125,67.0684 68,69.5C 68.1245,66.7351 68.9579,65.0684 70.5,64.5C 70.3333,63.8333 70.1667,63.1667 70,62.5C 68.927,63.2797 67.7604,63.113 66.5,62C 70.1516,61.5014 73.8183,61.3347 77.5,61.5 Z"/></g>
<g><path style="opacity:1" fill="#fcfcfb" d="M 5.5,60.5 C 7.65223,61.2809 9.65223,61.6143 11.5,61.5C 6.85203,68.2495 8.85203,71.5828 17.5,71.5C 17.2991,74.7648 18.4657,77.4315 21,79.5C 21.6667,76.8333 22.3333,76.8333 23,79.5C 24.0946,78.3066 24.928,76.9733 25.5,75.5C 27.1667,76.8333 28.8333,78.1667 30.5,79.5C 31.8333,79.5 33.1667,79.5 34.5,79.5C 34.3915,81.5138 35.0582,83.1805 36.5,84.5C 24.1667,84.5 11.8333,84.5 -0.5,84.5C -0.5,77.1667 -0.5,69.8333 -0.5,62.5C 0.791047,62.7373 1.79105,62.404 2.5,61.5C 3.39105,60.8902 4.39105,60.5569 5.5,60.5 Z"/></g>
<g><path style="opacity:1" fill="#975d50" d="M 19.5,63.5 C 19.5,63.8333 19.5,64.1667 19.5,64.5C 17.6086,67.1717 14.9419,68.1717 11.5,67.5C 11.5,65.5 11.5,63.5 11.5,61.5C 12.4822,60.8592 13.4822,60.1925 14.5,59.5C 15.7362,60.2458 17.0695,60.5792 18.5,60.5C 18.2627,61.791 18.596,62.791 19.5,63.5 Z"/></g>
<g><path style="opacity:1" fill="#966f62" d="M 60.5,68.5 C 60.1667,68.5 59.8333,68.5 59.5,68.5C 58.5244,67.1851 57.5244,65.8518 56.5,64.5C 57.2458,63.2638 57.5792,61.9305 57.5,60.5C 60.2585,58.9521 62.7585,59.2854 65,61.5C 66.5117,65.805 65.0117,68.1383 60.5,68.5 Z"/></g>
<g><path style="opacity:1" fill="#9e5d47" d="M 59.5,61.5 C 60.8333,61.5 62.1667,61.5 63.5,61.5C 63.5,63.1667 63.5,64.8333 63.5,66.5C 60.5299,66.2542 59.1966,64.5876 59.5,61.5 Z"/></g>
<g><path style="opacity:1" fill="#f5ede3" d="M 11.5,61.5 C 11.5,63.5 11.5,65.5 11.5,67.5C 14.9419,68.1717 17.6086,67.1717 19.5,64.5C 20.7997,65.1079 22.1331,65.7745 23.5,66.5C 24.6721,66.0814 25.6721,65.4147 26.5,64.5C 29.0335,65.7883 31.5335,65.7883 34,64.5C 34.9947,65.0659 35.828,65.7326 36.5,66.5C 32.7162,66.5253 31.7162,68.1919 33.5,71.5C 32.8333,72.1667 32.1667,72.8333 31.5,73.5C 29.2712,75.0993 28.9378,77.0993 30.5,79.5C 28.8333,78.1667 27.1667,76.8333 25.5,75.5C 24.928,76.9733 24.0946,78.3066 23,79.5C 22.3333,76.8333 21.6667,76.8333 21,79.5C 18.4657,77.4315 17.2991,74.7648 17.5,71.5C 8.85203,71.5828 6.85203,68.2495 11.5,61.5 Z"/></g>
<g><path style="opacity:1" fill="#9a5f52" d="M 25.5,75.5 C 19.5315,75.3951 18.1982,72.8951 21.5,68C 27.7984,67.5046 29.1318,70.0046 25.5,75.5 Z"/></g>
<g><path style="opacity:1" fill="#cfa794" d="M 33.5,71.5 C 35.0749,72.3284 36.4082,72.6618 37.5,72.5C 39.1897,76.5118 38.523,77.1784 35.5,74.5C 34.4324,73.5655 33.099,73.2322 31.5,73.5C 32.1667,72.8333 32.8333,72.1667 33.5,71.5 Z"/></g>
<g><path style="opacity:1" fill="#f7eae1" d="M 55.5,60.5 C 56.1667,60.5 56.8333,60.5 57.5,60.5C 57.5792,61.9305 57.2458,63.2638 56.5,64.5C 57.5244,65.8518 58.5244,67.1851 59.5,68.5C 57.974,70.4499 56.974,72.7833 56.5,75.5C 53.8035,76.1693 51.1368,76.8359 48.5,77.5C 47.9424,75.4066 46.6091,73.9066 44.5,73C 45.4061,71.3005 45.7394,69.4672 45.5,67.5C 42.6748,67.1616 40.5082,68.1616 39,70.5C 38.5204,68.867 37.6871,67.5336 36.5,66.5C 38.7867,66.2761 40.9534,65.6094 43,64.5C 44.4728,64.9031 45.8061,65.5697 47,66.5C 47.3333,66.1667 47.6667,65.8333 48,65.5C 48.2784,66.4158 48.7784,67.0825 49.5,67.5C 51.0419,66.8365 52.7086,66.1698 54.5,65.5C 55.9122,63.8027 56.2455,62.136 55.5,60.5 Z"/></g>
<g><path style="opacity:1" fill="#986351" d="M 49.5,67.5 C 56.116,66.9144 57.7827,69.4144 54.5,75C 48.7972,75.4559 47.1305,72.9559 49.5,67.5 Z"/></g>
<g><path style="opacity:1" fill="#9e6959" d="M 36.5,66.5 C 37.6871,67.5336 38.5204,68.867 39,70.5C 40.5082,68.1616 42.6748,67.1616 45.5,67.5C 45.7394,69.4672 45.4061,71.3005 44.5,73C 46.6091,73.9066 47.9424,75.4066 48.5,77.5C 47.6441,80.5131 45.8108,81.1797 43,79.5C 42.3305,81.5902 41.1639,83.2568 39.5,84.5C 38.5,84.5 37.5,84.5 36.5,84.5C 35.0582,83.1805 34.3915,81.5138 34.5,79.5C 33.1667,79.5 31.8333,79.5 30.5,79.5C 28.9378,77.0993 29.2712,75.0993 31.5,73.5C 33.099,73.2322 34.4324,73.5655 35.5,74.5C 36.5114,76.3716 37.3448,78.3716 38,80.5C 39.3946,78.8603 40.8946,77.3603 42.5,76C 41.1509,75.2276 40.3176,74.0609 40,72.5C 39.2303,73.5981 38.397,73.5981 37.5,72.5C 36.4082,72.6618 35.0749,72.3284 33.5,71.5C 31.7162,68.1919 32.7162,66.5253 36.5,66.5 Z"/></g>
<g><path style="opacity:1" fill="#f8e3d5" d="M 37.5,72.5 C 38.397,73.5981 39.2303,73.5981 40,72.5C 40.3176,74.0609 41.1509,75.2276 42.5,76C 40.8946,77.3603 39.3946,78.8603 38,80.5C 37.3448,78.3716 36.5114,76.3716 35.5,74.5C 38.523,77.1784 39.1897,76.5118 37.5,72.5 Z"/></g>
</svg>
